<svg width="105" height="185" viewBox="0 0 105 185" fill="none" xmlns="http://www.w3.org/2000/svg">
<path d="M3.66117 83.2107C-1.22039 88.0923 -1.22039 96.0068 3.66117 100.888L83.2107 180.438C88.0922 185.319 96.0068 185.319 100.888 180.438C105.77 175.556 105.77 167.642 100.888 162.76L30.1777 92.0496L100.888 21.3389C105.77 16.4573 105.77 8.54277 100.888 3.66121C96.0068 -1.22034 88.0922 -1.22034 83.2107 3.66121L3.66117 83.2107ZM18.5 104.55C25.4036 104.55 31 98.9531 31 92.0496C31 85.146 25.4036 79.5496 18.5 79.5496V92.0496V104.55ZM12.5 92.0496V104.55H18.5V92.0496V79.5496H12.5V92.0496Z" fill="white"/>
</svg>
