<svg width="354" height="512" viewBox="0 0 354 512" fill="none" xmlns="http://www.w3.org/2000/svg">
<g clip-path="url(#clip0_58_41)">
<path d="M316.801 119.1L316.45 118.894L315.637 118.646C315.964 118.922 316.373 119.082 316.801 119.1Z" fill="white"/>
<path d="M316.952 119.044C316.902 119.037 316.853 119.026 316.805 119.009C316.802 119.041 316.802 119.074 316.805 119.107C316.859 119.099 316.91 119.078 316.952 119.044Z" fill="white"/>
<path d="M316.803 119.105H316.856V119.072L316.803 119.105Z" fill="white"/>
<path d="M321.608 155.612L322.201 155.274L322.421 155.15L322.621 154.937C322.245 155.099 321.902 155.328 321.608 155.612Z" fill="white"/>
<path d="M317.827 119.9L317.248 119.348L316.855 119.135C317.066 119.507 317.415 119.782 317.827 119.9Z" fill="white"/>
<path d="M172.202 474.843C171.74 475.043 171.334 475.355 171.024 475.752L171.389 475.52C171.637 475.291 171.988 475.023 172.202 474.843Z" fill="white"/>
<path d="M256.765 458.21C256.765 457.69 256.51 457.786 256.572 459.643C256.572 459.495 256.634 459.343 256.662 459.199C256.696 458.867 256.724 458.542 256.765 458.21Z" fill="white"/>
<path d="M247.994 474.843C247.531 475.043 247.126 475.355 246.816 475.752L247.181 475.52C247.429 475.291 247.78 475.023 247.994 474.843Z" fill="white"/>
<path d="M112.649 478.798C112.298 478.494 111.868 478.294 111.409 478.218C111.781 478.398 112.153 478.578 112.401 478.714L112.649 478.798Z" fill="white"/>
<path d="M99.2486 465.968C99.1938 465.428 99.0272 464.903 98.7593 464.427C98.9491 464.919 99.1077 465.428 99.2346 465.94L99.2486 465.968Z" fill="white"/>
<path d="M189.263 236.519C170.866 244.392 149.988 253.319 122.929 253.319C111.61 253.296 100.346 251.744 89.4424 248.704L108.157 440.776C108.819 448.803 112.478 456.288 118.406 461.745C124.333 467.201 132.097 470.227 140.155 470.227C140.155 470.227 166.69 471.604 175.544 471.604C185.074 471.604 213.648 470.227 213.648 470.227C221.705 470.227 229.467 467.197 235.394 461.741C241.32 456.284 244.978 448.803 245.64 440.776L265.684 228.529C256.727 225.471 247.686 223.439 237.496 223.439C219.87 223.432 205.669 229.501 189.263 236.519Z" fill="white"/>
<path d="M31.511 154.574L31.8279 154.87L32.0347 154.994C31.8755 154.836 31.6999 154.695 31.511 154.574Z" fill="white"/>
<path d="M352.225 136.847L349.407 122.637C346.878 109.887 341.138 97.84 328.047 93.232C323.85 91.7577 319.089 91.1244 315.871 88.0728C312.654 85.0216 311.703 80.2827 310.959 75.8881C309.58 67.8222 308.285 59.7495 306.872 51.6976C305.653 44.775 304.688 36.9986 301.512 30.6479C297.378 22.1206 288.799 17.1337 280.269 13.8344C275.898 12.2033 271.437 10.8235 266.908 9.70166C245.596 4.08107 223.189 2.01468 201.264 0.836842C174.948 -0.614788 148.561 -0.177432 122.307 2.14555C102.766 3.92264 82.1845 6.0717 63.6151 12.8288C56.8282 15.3016 49.8343 18.2702 44.6737 23.512C38.3412 29.9522 36.2741 39.9122 40.8974 47.9435C44.1843 53.6467 49.7518 57.6763 55.6569 60.3419C63.3484 63.7766 71.3811 66.3903 79.6216 68.1392C102.566 73.2088 126.331 75.1992 149.772 76.0466C175.753 77.0946 201.776 76.2452 227.633 73.5046C234.028 72.8021 240.41 71.9594 246.782 70.9771C254.285 69.8266 259.102 60.0181 256.89 53.1851C254.244 45.0164 247.133 41.8479 239.092 43.0809C237.907 43.2666 236.729 43.4387 235.543 43.6109L234.689 43.735C231.965 44.0796 229.241 44.4007 226.517 44.6993C220.89 45.3054 215.249 45.8014 209.594 46.1873C196.93 47.0688 184.231 47.4751 171.539 47.4959C159.067 47.4959 146.589 47.1444 134.145 46.325C128.467 45.9531 122.803 45.4799 117.153 44.9059C114.583 44.6373 112.02 44.3551 109.457 44.038L107.017 43.7282L106.487 43.6525L103.958 43.2874C98.7904 42.5088 93.6226 41.6137 88.51 40.5321C87.9942 40.4176 87.5325 40.131 87.2017 39.7188C86.871 39.3067 86.6908 38.7943 86.6908 38.266C86.6908 37.7377 86.871 37.2252 87.2017 36.8132C87.5325 36.4012 87.9942 36.1143 88.51 35.9998H88.6065C93.0371 35.0562 97.5018 34.2503 101.98 33.5477C103.474 33.3135 104.971 33.084 106.473 32.859H106.514C109.319 32.673 112.137 32.1701 114.927 31.8395C139.207 29.315 163.63 28.4543 188.028 29.2634C199.872 29.6079 211.71 30.3035 223.499 31.502C226.035 31.7638 228.557 32.0393 231.078 32.3492C232.043 32.4664 233.014 32.6041 233.986 32.7212L235.943 33.0036C241.648 33.8531 247.323 34.884 252.969 36.0963C261.334 37.9147 272.076 38.5071 275.797 47.668C276.982 50.5747 277.52 53.8052 278.174 56.8564L279.008 60.7483C279.03 60.8179 279.046 60.8896 279.056 60.9616C281.027 70.1456 283 79.3296 284.975 88.5135C285.12 89.1921 285.123 89.893 284.985 90.5728C284.847 91.2529 284.57 91.8966 284.171 92.465C283.773 93.0331 283.262 93.5131 282.67 93.8749C282.078 94.2368 281.418 94.4726 280.73 94.5683H280.675L279.469 94.7336L278.278 94.8917C274.501 95.3833 270.721 95.8425 266.936 96.2696C259.48 97.1191 252.014 97.8537 244.536 98.4737C229.675 99.7087 214.785 100.519 199.865 100.905C192.263 101.107 184.663 101.201 177.065 101.187C146.823 101.164 116.607 99.4065 86.567 95.9249C83.3145 95.5394 80.0625 95.1259 76.81 94.706C79.332 95.0298 74.9771 94.4578 74.0953 94.3341C72.0282 94.0447 69.9611 93.744 67.8939 93.4318C60.9553 92.3914 54.0583 91.1104 47.1333 89.9875C38.7616 88.61 30.755 89.299 23.1824 93.4318C16.9666 96.8321 11.9357 102.046 8.76094 108.379C5.49489 115.129 4.52335 122.478 3.0626 129.731C1.60185 136.984 -0.67198 144.788 0.189314 152.234C2.04282 168.304 13.281 181.363 29.4458 184.284C44.6529 187.039 59.9425 189.271 75.2735 191.172C135.498 198.545 196.339 199.427 256.752 193.803C261.672 193.344 266.584 192.843 271.49 192.301C273.023 192.133 274.573 192.309 276.029 192.818C277.484 193.326 278.807 194.154 279.901 195.239C280.995 196.325 281.832 197.642 282.351 199.092C282.87 200.543 283.058 202.092 282.901 203.625L281.371 218.489C278.289 248.525 275.207 278.559 272.124 308.591C268.909 340.129 265.673 371.664 262.416 403.195C261.497 412.078 260.578 420.957 259.66 429.832C258.778 438.575 258.654 447.59 256.993 456.228C254.375 469.811 245.176 478.154 231.754 481.204C219.457 484.002 206.895 485.471 194.284 485.583C180.303 485.659 166.33 485.039 152.349 485.115C137.424 485.199 119.145 483.822 107.624 472.717C97.5018 462.966 96.103 447.694 94.725 434.487C92.8878 417.006 91.0665 399.528 89.2609 382.051L79.1322 284.869L72.5796 221.989C72.4691 220.949 72.359 219.922 72.2556 218.875C71.47 211.374 66.1576 204.032 57.7857 204.411C50.62 204.727 42.4756 210.816 43.3161 218.875L48.1736 265.493L58.2198 361.924C61.0818 389.315 63.9366 416.71 66.7847 444.111C67.3361 449.359 67.8527 454.623 68.4313 459.871C71.5805 488.554 93.4916 504.01 120.626 508.361C136.474 510.911 152.707 511.436 168.79 511.696C189.406 512.028 210.228 512.821 230.506 509.086C260.556 503.573 283.101 483.518 286.318 452.405C287.237 443.422 288.156 434.439 289.075 425.452C292.129 395.733 295.18 366.011 298.225 336.287L308.189 239.167L312.757 194.657C312.984 192.45 313.917 190.375 315.416 188.739C316.915 187.103 318.901 185.992 321.08 185.572C329.673 183.898 337.886 181.039 343.998 174.503C353.727 164.095 355.663 150.526 352.225 136.847ZM29.0048 146.448C29.1357 146.386 28.8946 147.509 28.7912 148.032C28.7705 147.24 28.8119 146.538 29.0048 146.448ZM29.8386 152.895C29.9075 152.847 30.1141 153.123 30.3278 153.453C30.0039 153.15 29.7972 152.923 29.8317 152.895H29.8386ZM30.6585 153.977C31.1133 154.797 30.9548 154.479 30.6585 153.977ZM32.3053 155.313H32.3466C32.3466 155.361 32.4224 155.409 32.45 155.458C32.4043 155.405 32.3536 155.356 32.2984 155.313H32.3053ZM320.681 153.315C317.594 156.25 312.943 157.614 308.347 158.296C256.807 165.941 204.516 169.812 152.411 168.104C115.12 166.83 78.2228 162.69 41.3043 157.476C37.6867 156.966 33.766 156.305 31.2786 153.639C26.5932 148.611 28.8946 138.486 30.1141 132.411C31.2304 126.845 33.3664 119.427 39.9881 118.635C50.3237 117.423 62.3264 121.782 72.552 123.332C84.8627 125.21 97.2195 126.714 109.622 127.844C162.554 132.666 216.374 131.915 269.072 124.862C278.677 123.571 288.248 122.072 297.784 120.364C306.28 118.841 315.699 115.983 320.833 124.779C324.353 130.771 324.822 138.789 324.278 145.56C324.11 148.51 322.82 151.284 320.674 153.315H320.681Z" fill="white"/>
</g>
<defs>
<clipPath id="clip0_58_41">
<rect width="354" height="512" fill="white"/>
</clipPath>
</defs>
</svg>
