<svg width="521" height="512" viewBox="0 0 521 512" fill="none" xmlns="http://www.w3.org/2000/svg">
<path fill-rule="evenodd" clip-rule="evenodd" d="M260.716 0C116.547 0 0 117.333 0 262.49C0 378.521 74.6754 476.739 178.27 511.502C191.222 514.115 195.966 505.854 195.966 498.905C195.966 492.819 195.539 471.961 195.539 450.227C123.015 465.875 107.912 418.937 107.912 418.937C96.2567 388.516 78.9874 380.697 78.9874 380.697C55.2501 364.617 80.7165 364.617 80.7165 364.617C107.047 366.356 120.864 391.561 120.864 391.561C144.169 431.54 181.723 420.244 196.831 413.289C198.987 396.34 205.898 384.606 213.236 378.089C155.392 372.004 94.533 349.407 94.533 248.58C94.533 219.898 104.886 196.431 121.291 178.181C118.703 171.663 109.636 144.714 123.884 108.645C123.884 108.645 145.898 101.69 195.534 135.589C216.785 129.843 238.701 126.92 260.716 126.895C282.729 126.895 305.17 129.941 325.892 135.589C375.533 101.69 397.547 108.645 397.547 108.645C411.795 144.714 402.723 171.663 400.135 178.181C416.972 196.431 426.898 219.898 426.898 248.58C426.898 349.407 366.039 371.566 307.763 378.089C317.262 386.345 325.46 401.988 325.46 426.761C325.46 461.961 325.033 490.211 325.033 498.899C325.033 505.854 329.782 514.115 342.729 511.507C446.323 476.734 520.999 378.521 520.999 262.49C521.426 117.333 404.452 0 260.716 0Z" fill="white"/>
</svg>
