<svg width="185" height="105" viewBox="0 0 185 105" fill="none" xmlns="http://www.w3.org/2000/svg">
<path d="M100.888 3.66117C96.0068 -1.22039 88.0923 -1.22039 83.2107 3.66117L3.66121 83.2107C-1.22034 88.0922 -1.22034 96.0068 3.66121 100.888C8.54276 105.77 16.4573 105.77 21.3389 100.888L92.0496 30.1777L162.76 100.888C167.642 105.77 175.556 105.77 180.438 100.888C185.319 96.0068 185.319 88.0922 180.438 83.2107L100.888 3.66117ZM79.5496 18.5C79.5496 25.4036 85.146 31 92.0496 31C98.9531 31 104.55 25.4036 104.55 18.5H92.0496H79.5496ZM92.0496 12.5H79.5496V18.5H92.0496H104.55V12.5H92.0496Z" fill="white"/>
</svg>
