<svg width="512" height="512" viewBox="0 0 512 512" fill="none" xmlns="http://www.w3.org/2000/svg">
<path d="M494.577 212.841C504.636 214.573 512 223.307 512 233.517V278.468C512 288.678 504.636 297.412 494.577 299.144L452.759 306.342C447.925 325.286 440.471 343.13 430.743 359.514L455.228 394.165C461.116 402.507 460.152 413.892 452.924 421.105L421.135 452.894C413.033 460.68 401.905 460.74 394.195 455.198L359.544 430.712C343.16 440.44 325.316 447.895 306.372 452.728L299.174 494.547C297.427 504.636 288.693 512 278.468 512H233.517C223.307 512 214.573 504.636 212.841 494.577L205.643 452.759C186.699 447.925 168.855 440.471 152.471 430.743L117.82 455.228C109.779 460.966 98.4998 460.393 90.88 452.924L59.0908 421.135C51.8626 413.907 50.8988 402.537 56.7868 394.195L81.2725 359.544C71.5445 343.16 64.0904 325.316 59.2565 306.372L17.4381 299.174C7.36376 297.427 0 288.693 0 278.468V233.517C0 223.307 7.36376 214.573 17.4231 212.841L59.2414 205.643C64.0753 186.699 71.5294 168.855 81.2574 152.471L56.7718 117.82C50.8838 109.478 51.8475 98.0932 59.0758 90.88L90.8649 59.0908C99.84 50.3718 111.48 52.224 117.805 56.7868L152.456 81.2725C168.84 71.5445 186.684 64.0904 205.628 59.2565L212.826 17.4381C214.573 7.36376 223.307 0 233.532 0H278.483C288.693 0 297.427 7.36376 299.159 17.4231L306.357 59.2414C325.301 64.0753 343.145 71.5294 359.529 81.2574L394.18 56.7718C403.471 50.5374 414.524 52.5252 421.12 59.0758L452.909 90.8649C460.137 98.0932 461.101 109.463 455.213 117.805L430.728 152.456C440.456 168.84 447.91 186.684 452.744 205.628L494.577 212.841ZM256 360.734C313.841 360.734 360.734 313.841 360.734 256C360.734 198.159 313.841 151.266 256 151.266C198.159 151.266 151.266 198.159 151.266 256C151.266 313.841 198.159 360.734 256 360.734Z" fill="white"/>
</svg>
